# xmcd CD database file
#
# Track frame offsets:
#	150
#	12760
#	29685
#	45497
#	63535
#	75615
#	87905
#	105032
#	123837
#	138067
#	153085
#	168965
#
# Disc length: 2425 seconds
#
# Revision: 0
# Processed by: cddbd v1.5PL3 Copyright (c) Steve Scherf et al.
# Submitted via: Feurio! 1.65 - http://www.feurio.com
#
DISCID=7f09770c
DTITLE=Various Artist - The Kings Of New Country
DYEAR=1900
DGENRE=country
TTITLE0=Aaron Tippin - There Ain't Nothin' Wrong With The Radio
TTITLE1=David Lee Murphy - Dust On The Bottle
TTITLE2=Toby Keith - Should've Been A Cowboy
TTITLE3=Lionel Cartwright - Leap Of Faith
TTITLE4=Marty Stewart - The Whiskey Ain't Workin'
TTITLE5=Ty England - Should Have Asked Her Faster
TTITLE6=Doug Supernaw - I Don't Call Him Daddy
TTITLE7=Mark Chesnutt - Almost Goodbye
TTITLE8=Sammy Kershaw - National Working Woman's Holliday
TTITLE9=Alabama - Reckless
TTITLE10=Paul Overstreet - Daddy's Come Around
TTITLE11=John Anderson - Straight Tequila Night
EXTD=
EXTT0=
EXTT1=
EXTT2=
EXTT3=
EXTT4=
EXTT5=
EXTT6=
EXTT7=
EXTT8=
EXTT9=
EXTT10=
EXTT11=
PLAYORDER=
